<svg width="113" height="32" viewBox="0 0 113 32" fill="none" xmlns="http://www.w3.org/2000/svg">
<mask id="mask0_7953_1773" style="mask-type:luminance" maskUnits="userSpaceOnUse" x="0" y="0" width="32" height="32">
<path d="M31.1985 0.635742H0.847656V31.687H31.1985V0.635742Z" fill="white"/>
</mask>
<g mask="url(#mask0_7953_1773)">
<path opacity="0.35" d="M14.1554 5.05042C13.6673 4.56226 13.3914 3.9043 13.3914 3.22512C13.3914 2.54594 13.6673 1.88798 14.1554 1.39982C14.6436 0.911659 15.3016 0.635742 15.9807 0.635742C16.6811 0.635742 17.3179 0.911659 17.806 1.39982C18.2942 1.88798 18.5701 2.52471 18.5701 3.22512C18.5701 3.92552 18.2942 4.56226 17.806 5.05042C17.3179 5.53858 16.6599 5.8145 15.9807 5.8145C15.3016 5.79327 14.6648 5.53858 14.1554 5.05042Z" fill="white"/>
<path opacity="0.35" d="M6.93901 11.2692C6.45084 10.781 6.17493 10.123 6.17493 9.44387C6.17493 8.76469 6.45084 8.10673 6.93901 7.61857C7.42717 7.13041 8.0639 6.85449 8.7643 6.85449C9.46471 6.85449 10.1014 7.13041 10.5896 7.61857C11.0778 8.10673 11.3537 8.74346 11.3537 9.44387C11.3537 10.1443 11.0778 10.781 10.5896 11.2692C10.1014 11.7573 9.44348 12.0332 8.7643 12.0332C8.08512 12.012 7.42717 11.7573 6.93901 11.2692Z" fill="white"/>
<path opacity="0.35" d="M20.8835 12.1178C20.3953 11.6296 20.1194 10.9717 20.1194 10.2925C20.1194 9.61332 20.3953 8.95536 20.8835 8.4672C21.3716 7.97904 22.0084 7.70312 22.7088 7.70312C23.4092 7.70312 24.0459 7.97904 24.5341 8.4672C25.0222 8.95536 25.2981 9.5921 25.2981 10.2925C25.2981 10.9929 25.0222 11.6296 24.5341 12.1178C24.0459 12.606 23.3879 12.8819 22.7088 12.8819C22.0296 12.8819 21.3716 12.606 20.8835 12.1178Z" fill="white"/>
<path opacity="0.35" d="M26.8051 18.2526C26.3169 17.7644 26.041 17.1064 26.041 16.4273C26.041 15.7481 26.3169 15.0901 26.8051 14.602C27.2933 14.1138 27.93 13.8379 28.6304 13.8379C29.3308 13.8379 29.9675 14.1138 30.4557 14.602C30.9439 15.0901 31.2198 15.7269 31.2198 16.4273C31.2198 17.1277 30.9439 17.7644 30.4557 18.2526C29.9675 18.7407 29.3096 19.0166 28.6304 19.0166C27.93 19.0166 27.2933 18.7407 26.8051 18.2526Z" fill="white"/>
<path opacity="0.35" d="M21.308 24.7037C20.8199 24.2156 20.5439 23.5576 20.5439 22.8784C20.5439 22.1993 20.8199 21.5413 21.308 21.0531C21.7962 20.565 22.4329 20.2891 23.1333 20.2891C23.8337 20.2891 24.4705 20.565 24.9586 21.0531C25.4468 21.5413 25.7227 22.178 25.7227 22.8784C25.7227 23.5788 25.4468 24.2156 24.9586 24.7037C24.4705 25.1919 23.8125 25.4678 23.1333 25.4678C22.4541 25.4678 21.7962 25.1919 21.308 24.7037Z" fill="white"/>
<path opacity="0.35" d="M14.1554 30.944C13.6673 30.4558 13.3914 29.7979 13.3914 29.1187C13.3914 28.4395 13.6673 27.7815 14.1554 27.2934C14.6436 26.8052 15.2803 26.5293 15.9807 26.5293C16.6811 26.5293 17.3179 26.8052 17.806 27.2934C18.2942 27.7815 18.5701 28.4183 18.5701 29.1187C18.5701 29.8191 18.2942 30.4558 17.806 30.944C17.3179 31.4321 16.6599 31.708 15.9807 31.708C15.3016 31.6868 14.6436 31.4321 14.1554 30.944Z" fill="white"/>
<path fill-rule="evenodd" clip-rule="evenodd" d="M9.18884 26.0211C9.59211 26.2334 10.0378 26.3607 10.526 26.3395C11.2052 26.3183 11.8631 26.0424 12.3301 25.533C12.4362 25.4269 12.5211 25.3207 12.606 25.1509C12.6272 25.1085 12.6484 25.066 12.6909 25.0236C12.7545 24.9387 12.797 24.8326 12.8394 24.7477C12.8607 24.7052 12.8819 24.6416 12.9031 24.5991C12.9456 24.5142 12.9668 24.4081 12.988 24.2807L13.0092 24.2383V24.2171V24.1958L13.0305 23.6228C13.0305 23.6016 13.0305 23.5591 13.0305 23.5379C13.0305 23.5167 13.0305 23.5167 13.0305 23.4954C13.0305 23.4742 13.0305 23.4318 13.0092 23.4105C13.0092 23.3893 13.0092 23.3469 13.0092 23.3256C13.0092 23.3044 13.0092 23.262 12.988 23.2407V23.2195V23.1983C12.9243 22.222 13.2852 21.2244 13.9856 20.4603C14.686 19.6963 15.6411 19.2506 16.6386 19.2293H16.766H16.7872H16.8084C16.8296 19.2293 16.8509 19.2293 16.8509 19.2293H16.8933C16.9782 19.2293 17.0631 19.2506 17.1268 19.2506L17.6998 19.1869C17.7211 19.1869 17.7211 19.1869 17.7423 19.1657C17.7635 19.1657 17.7635 19.1657 17.7847 19.1444H17.806C17.9121 19.102 18.0182 19.0808 18.1243 19.0383C18.1668 19.0171 18.188 19.0171 18.2304 18.9959C18.2517 18.9959 18.2517 18.9746 18.2729 18.9746C18.3578 18.9322 18.4427 18.8897 18.5488 18.8261L18.57 18.8048C18.57 18.8048 18.57 18.8048 18.5913 18.8048C18.6125 18.7836 18.6549 18.7624 18.6761 18.7412C18.8247 18.635 18.9308 18.5501 19.037 18.444C20.0133 17.404 19.9708 15.7698 18.9308 14.7934C18.4215 14.3265 17.7635 14.0718 17.0843 14.093C16.3839 14.1142 15.7472 14.4114 15.2802 14.8996C15.1953 15.0057 15.0892 15.1118 15.0043 15.2816C14.9831 15.3028 14.9831 15.324 14.9619 15.3453C14.9619 15.3665 14.9407 15.3665 14.9407 15.3877V15.4089C14.8982 15.5151 14.8345 15.6 14.7921 15.7061C14.7709 15.7485 14.7496 15.8122 14.7284 15.8546C14.7072 15.9395 14.6647 16.0457 14.6435 16.1942C14.6435 16.1942 14.6223 16.2579 14.6223 16.2791V16.3004L14.6011 16.8522C14.6011 16.8946 14.6011 16.9583 14.6223 17.0008L14.6435 17.0857V17.1069C14.6435 17.1281 14.6435 17.1493 14.6435 17.1493C14.6435 17.1918 14.6435 17.213 14.6647 17.2342V17.2555V17.2767C14.7284 18.253 14.3676 19.2506 13.6672 20.0146C12.9668 20.7787 12.0117 21.2244 11.0141 21.2456H10.9717H10.9505H10.908C10.8868 21.2456 10.8868 21.2456 10.8656 21.2456L10.2925 21.2032L10.1439 21.2244H10.0803C10.0378 21.2244 10.0166 21.2244 9.97415 21.2244C9.95292 21.2244 9.91047 21.2244 9.88925 21.2244H9.86802H9.8468C8.87048 21.2456 7.87293 20.8636 7.1513 20.142C6.40845 19.4203 5.98396 18.444 5.98396 17.4677V17.3404V17.3191V17.2979V17.2767C5.98396 17.2555 5.98396 17.2555 5.98396 17.2342C5.98396 17.213 5.98396 17.213 5.98396 17.1918V17.1493V17.1281C5.98396 17.0432 6.00518 16.9795 6.00518 16.9159L5.96274 16.3428C5.96274 16.3216 5.96274 16.3216 5.94151 16.3004C5.94151 16.2791 5.94151 16.2579 5.92029 16.2367C5.89906 16.1093 5.85661 16.0032 5.83539 15.9183C5.81417 15.8759 5.79294 15.8122 5.77172 15.7698C5.72927 15.6849 5.68682 15.5787 5.62315 15.4938C5.62315 15.4726 5.60192 15.4726 5.60192 15.4514C5.5807 15.4302 5.55947 15.3877 5.53825 15.3665C5.43213 15.2179 5.34723 15.1118 5.24111 15.0057C4.75295 14.5175 4.09499 14.2416 3.41581 14.2416C2.7154 14.2416 2.07867 14.5175 1.59051 15.0057C1.12357 15.4726 0.847656 16.1306 0.847656 16.8097C0.847656 17.5102 1.12357 18.1469 1.61173 18.635C1.71786 18.7412 1.82398 18.8261 1.97255 18.9322C2.015 18.9534 2.03622 18.9746 2.07867 18.9959C2.07867 18.9959 2.0999 18.9959 2.0999 19.0171C2.18479 19.0808 2.29092 19.1232 2.39704 19.1657C2.43949 19.1869 2.48193 19.2081 2.54561 19.2293C2.63051 19.2718 2.73663 19.293 2.86397 19.3142C2.8852 19.3142 2.94887 19.3355 2.94887 19.3355L3.50071 19.3779H3.52193C3.56438 19.3779 3.5856 19.3779 3.62805 19.3779C3.6705 19.3779 3.69173 19.3779 3.71295 19.3779C3.7554 19.3779 3.77662 19.3779 3.81907 19.3779C3.8403 19.3779 3.88275 19.3779 3.90397 19.3779H3.92519H3.94642C4.92274 19.3567 5.92029 19.7387 6.64192 20.4603C7.38477 21.182 7.80926 22.1583 7.80926 23.1346V23.262V23.2832V23.3044V23.3256C7.80926 23.3469 7.80926 23.3893 7.80926 23.3893V23.4318V23.453C7.80926 23.5167 7.78803 23.5803 7.78803 23.644L7.83048 24.2171V24.2383V24.2595L7.85171 24.3232C7.87293 24.4293 7.91538 24.5354 7.93661 24.6415C7.95783 24.684 7.97905 24.7264 7.97905 24.7689C7.97905 24.7689 7.97905 24.7901 8.00028 24.7901C8.04273 24.875 8.08518 24.9811 8.14885 25.066C8.17007 25.1085 8.1913 25.1509 8.23375 25.1934C8.33987 25.342 8.42477 25.4481 8.53089 25.5542C8.72191 25.7452 8.95538 25.915 9.18884 26.0211Z" fill="white"/>
</g>
<path opacity="0.99" d="M109.9 24.4114V7.65039H112.48V24.4114H109.9Z" fill="white"/>
<path opacity="0.99" d="M104.048 24.4115V12.5746H106.628V24.4115H104.048ZM104.048 10.5623V7.83984H106.628V10.5623H104.048Z" fill="white"/>
<path opacity="0.99" d="M100.808 16.2196V21.6173C100.824 21.9645 100.911 22.2249 101.069 22.3985C101.242 22.5563 101.503 22.6589 101.85 22.7063L101.779 24.6712C100.421 24.6712 99.3719 24.3792 98.6301 23.7952C97.3675 24.3792 96.097 24.6712 94.8187 24.6712C92.4671 24.6712 91.2913 23.4165 91.2913 20.9071C91.2913 19.7076 91.6069 18.8395 92.2382 18.3029C92.8853 17.7663 93.8717 17.4428 95.1974 17.3323L98.2513 17.0719V16.2196C98.2513 15.5883 98.1093 15.1464 97.8252 14.8939C97.5569 14.6414 97.1545 14.5151 96.6179 14.5151C95.6078 14.5151 94.3452 14.5783 92.8301 14.7045L92.0725 14.7519L91.9778 12.929C93.6981 12.5186 95.2763 12.3135 96.7126 12.3135C98.1645 12.3135 99.2062 12.6291 99.8375 13.2604C100.485 13.8759 100.808 14.8624 100.808 16.2196ZM95.5052 19.1552C94.4162 19.2499 93.8717 19.8417 93.8717 20.9307C93.8717 22.0197 94.3531 22.5642 95.3158 22.5642C96.1049 22.5642 96.9414 22.438 97.8252 22.1854L98.2513 22.0434V18.8948L95.5052 19.1552Z" fill="white"/>
<path opacity="0.99" d="M89.9325 14.776H86.6655V19.9842C86.6655 20.9469 86.7365 21.5861 86.8786 21.9018C87.0206 22.2174 87.3836 22.3752 87.9676 22.3752L89.9088 22.3042L90.0272 24.3638C88.9698 24.569 88.1649 24.6716 87.6125 24.6716C86.271 24.6716 85.3477 24.3638 84.8426 23.7483C84.3534 23.1328 84.1087 21.9728 84.1087 20.2683V14.776H82.5936V12.5743H84.1087V9.1416H86.6655V12.5743H89.9325V14.776Z" fill="white"/>
<path opacity="0.99" d="M79.9703 22.2801L80.6331 22.2091L80.6805 24.1267C78.8813 24.4897 77.2872 24.6712 75.8984 24.6712C74.1465 24.6712 72.8839 24.1898 72.1106 23.2271C71.353 22.2643 70.9742 20.7256 70.9742 18.6107C70.9742 14.4125 72.6866 12.3135 76.1114 12.3135C79.4258 12.3135 81.0829 14.1206 81.0829 17.7348L80.9172 19.5813H73.5784C73.5941 20.5598 73.8072 21.2779 74.2175 21.7356C74.6279 22.1933 75.3933 22.4222 76.5139 22.4222C77.6345 22.4222 78.7866 22.3748 79.9703 22.2801ZM78.5498 17.5927C78.5498 16.4248 78.3605 15.612 77.9817 15.1543C77.6187 14.6809 76.9953 14.4441 76.1114 14.4441C75.2276 14.4441 74.5805 14.6887 74.1702 15.178C73.7756 15.6673 73.5705 16.4722 73.5547 17.5927H78.5498Z" fill="white"/>
<path opacity="0.99" d="M63.0808 24.4108V12.5739H65.6376V13.9943C66.9791 13.1263 68.3206 12.566 69.6621 12.3135V14.8939C68.3048 15.1622 67.1448 15.5094 66.1821 15.9356L65.6613 16.1486V24.4108H63.0808Z" fill="white"/>
<path opacity="0.99" d="M52.9983 19.2031V16.8594H60.0767V19.2031H52.9983Z" fill="white"/>
<path opacity="0.99" d="M48.9878 8.19531H51.7339L47.7567 24.4118H42.5958L38.6187 8.19531H41.3648L44.5844 22.0918H45.7681L48.9878 8.19531Z" fill="white"/>
</svg>
